<?xml version="1.0" encoding="UTF-8" standalone="no"?>
<!DOCTYPE svg PUBLIC "-//W3C//DTD SVG 1.1//EN"
 "http://www.w3.org/Graphics/SVG/1.1/DTD/svg11.dtd">
<!-- Generated by graphviz version 2.38.0 (20140413.2041)
 -->
<!-- Title: %3 Pages: 1 -->
<svg width="286pt" height="260pt"
 viewBox="0.00 0.00 285.50 260.00" xmlns="http://www.w3.org/2000/svg" xmlns:xlink="http://www.w3.org/1999/xlink">
<g id="graph0" class="graph" transform="scale(1 1) rotate(0) translate(4 256)">
<title>%3</title>
<polygon fill="white" stroke="none" points="-4,4 -4,-256 281.5,-256 281.5,4 -4,4"/>
<!-- [root] aws_instance.ec2 -->
<g id="node1" class="node"><title>[root] aws_instance.ec2</title>
<polygon fill="none" stroke="black" points="114,-108 0,-108 0,-72 114,-72 114,-108"/>
<text text-anchor="middle" x="57" y="-86.3" font-family="Times New Roman,serif" font-size="14.00">aws_instance.ec2</text>
</g>
<!-- [root] provider.aws -->
<g id="node4" class="node"><title>[root] provider.aws</title>
<polygon fill="none" stroke="black" points="131,-36 49.3895,-18 131,-3.55271e-015 212.61,-18 131,-36"/>
<text text-anchor="middle" x="131" y="-14.3" font-family="Times New Roman,serif" font-size="14.00">provider.aws</text>
</g>
<!-- [root] aws_instance.ec2&#45;&gt;[root] provider.aws -->
<g id="edge1" class="edge"><title>[root] aws_instance.ec2&#45;&gt;[root] provider.aws</title>
<path fill="none" stroke="black" d="M75.2921,-71.6966C85.4865,-62.0533 98.2522,-49.9777 108.99,-39.8199"/>
<polygon fill="black" stroke="black" points="111.526,-42.2392 116.386,-32.8245 106.716,-37.1539 111.526,-42.2392"/>
</g>
<!-- [root] aws_s3_bucket.s3 -->
<g id="node2" class="node"><title>[root] aws_s3_bucket.s3</title>
<polygon fill="none" stroke="black" points="250,-180 130,-180 130,-144 250,-144 250,-180"/>
<text text-anchor="middle" x="190" y="-158.3" font-family="Times New Roman,serif" font-size="14.00">aws_s3_bucket.s3</text>
</g>
<!-- [root] aws_s3_bucket.s3_log -->
<g id="node3" class="node"><title>[root] aws_s3_bucket.s3_log</title>
<polygon fill="none" stroke="black" points="277.5,-108 132.5,-108 132.5,-72 277.5,-72 277.5,-108"/>
<text text-anchor="middle" x="205" y="-86.3" font-family="Times New Roman,serif" font-size="14.00">aws_s3_bucket.s3_log</text>
</g>
<!-- [root] aws_s3_bucket.s3&#45;&gt;[root] aws_s3_bucket.s3_log -->
<g id="edge2" class="edge"><title>[root] aws_s3_bucket.s3&#45;&gt;[root] aws_s3_bucket.s3_log</title>
<path fill="none" stroke="black" d="M193.708,-143.697C195.361,-135.983 197.347,-126.712 199.19,-118.112"/>
<polygon fill="black" stroke="black" points="202.662,-118.616 201.335,-108.104 195.817,-117.149 202.662,-118.616"/>
</g>
<!-- [root] aws_s3_bucket.s3_log&#45;&gt;[root] provider.aws -->
<g id="edge3" class="edge"><title>[root] aws_s3_bucket.s3_log&#45;&gt;[root] provider.aws</title>
<path fill="none" stroke="black" d="M186.708,-71.6966C176.513,-62.0533 163.748,-49.9777 153.01,-39.8199"/>
<polygon fill="black" stroke="black" points="155.284,-37.1539 145.614,-32.8245 150.474,-42.2392 155.284,-37.1539"/>
</g>
<!-- [root] provider.aws (close) -->
<g id="node5" class="node"><title>[root] provider.aws (close)</title>
<ellipse fill="none" stroke="black" cx="138" cy="-234" rx="108.581" ry="18"/>
<text text-anchor="middle" x="138" y="-230.3" font-family="Times New Roman,serif" font-size="14.00">[root] provider.aws (close)</text>
</g>
<!-- [root] provider.aws (close)&#45;&gt;[root] aws_instance.ec2 -->
<g id="edge4" class="edge"><title>[root] provider.aws (close)&#45;&gt;[root] aws_instance.ec2</title>
<path fill="none" stroke="black" d="M128.23,-215.871C114.181,-191.244 88.1665,-145.638 71.7651,-116.885"/>
<polygon fill="black" stroke="black" points="74.8002,-115.141 66.8051,-108.189 68.7198,-118.61 74.8002,-115.141"/>
</g>
<!-- [root] provider.aws (close)&#45;&gt;[root] aws_s3_bucket.s3 -->
<g id="edge5" class="edge"><title>[root] provider.aws (close)&#45;&gt;[root] aws_s3_bucket.s3</title>
<path fill="none" stroke="black" d="M150.588,-216.055C156.755,-207.753 164.309,-197.584 171.148,-188.378"/>
<polygon fill="black" stroke="black" points="174.013,-190.39 177.167,-180.275 168.394,-186.216 174.013,-190.39"/>
</g>
</g>
</svg>
