<?xml version="1.0" encoding="UTF-8" standalone="no"?>
<!DOCTYPE svg PUBLIC "-//W3C//DTD SVG 1.1//EN"
 "http://www.w3.org/Graphics/SVG/1.1/DTD/svg11.dtd">
<!-- Generated by graphviz version 2.38.0 (20140413.2041)
 -->
<!-- Title: %3 Pages: 1 -->
<svg width="225pt" height="332pt"
 viewBox="0.00 0.00 225.08 332.00" xmlns="http://www.w3.org/2000/svg" xmlns:xlink="http://www.w3.org/1999/xlink">
<g id="graph0" class="graph" transform="scale(1 1) rotate(0) translate(4 328)">
<title>%3</title>
<polygon fill="white" stroke="none" points="-4,4 -4,-328 221.081,-328 221.081,4 -4,4"/>
<!-- [root] aws_instance.ec2 -->
<g id="node1" class="node"><title>[root] aws_instance.ec2</title>
<polygon fill="none" stroke="black" points="165.54,-252 51.5404,-252 51.5404,-216 165.54,-216 165.54,-252"/>
<text text-anchor="middle" x="108.54" y="-230.3" font-family="Times New Roman,serif" font-size="14.00">aws_instance.ec2</text>
</g>
<!-- [root] aws_s3_bucket.s3 -->
<g id="node2" class="node"><title>[root] aws_s3_bucket.s3</title>
<polygon fill="none" stroke="black" points="168.54,-180 48.5404,-180 48.5404,-144 168.54,-144 168.54,-180"/>
<text text-anchor="middle" x="108.54" y="-158.3" font-family="Times New Roman,serif" font-size="14.00">aws_s3_bucket.s3</text>
</g>
<!-- [root] aws_instance.ec2&#45;&gt;[root] aws_s3_bucket.s3 -->
<g id="edge1" class="edge"><title>[root] aws_instance.ec2&#45;&gt;[root] aws_s3_bucket.s3</title>
<path fill="none" stroke="black" d="M108.54,-215.697C108.54,-207.983 108.54,-198.712 108.54,-190.112"/>
<polygon fill="black" stroke="black" points="112.04,-190.104 108.54,-180.104 105.04,-190.104 112.04,-190.104"/>
</g>
<!-- [root] aws_s3_bucket.s3_log -->
<g id="node3" class="node"><title>[root] aws_s3_bucket.s3_log</title>
<polygon fill="none" stroke="black" points="181.04,-108 36.0404,-108 36.0404,-72 181.04,-72 181.04,-108"/>
<text text-anchor="middle" x="108.54" y="-86.3" font-family="Times New Roman,serif" font-size="14.00">aws_s3_bucket.s3_log</text>
</g>
<!-- [root] aws_s3_bucket.s3&#45;&gt;[root] aws_s3_bucket.s3_log -->
<g id="edge2" class="edge"><title>[root] aws_s3_bucket.s3&#45;&gt;[root] aws_s3_bucket.s3_log</title>
<path fill="none" stroke="black" d="M108.54,-143.697C108.54,-135.983 108.54,-126.712 108.54,-118.112"/>
<polygon fill="black" stroke="black" points="112.04,-118.104 108.54,-108.104 105.04,-118.104 112.04,-118.104"/>
</g>
<!-- [root] provider.aws -->
<g id="node4" class="node"><title>[root] provider.aws</title>
<polygon fill="none" stroke="black" points="108.54,-36 26.9299,-18 108.54,-3.55271e-015 190.151,-18 108.54,-36"/>
<text text-anchor="middle" x="108.54" y="-14.3" font-family="Times New Roman,serif" font-size="14.00">provider.aws</text>
</g>
<!-- [root] aws_s3_bucket.s3_log&#45;&gt;[root] provider.aws -->
<g id="edge3" class="edge"><title>[root] aws_s3_bucket.s3_log&#45;&gt;[root] provider.aws</title>
<path fill="none" stroke="black" d="M108.54,-71.6966C108.54,-63.9827 108.54,-54.7125 108.54,-46.1124"/>
<polygon fill="black" stroke="black" points="112.04,-46.1043 108.54,-36.1043 105.04,-46.1044 112.04,-46.1043"/>
</g>
<!-- [root] provider.aws (close) -->
<g id="node5" class="node"><title>[root] provider.aws (close)</title>
<ellipse fill="none" stroke="black" cx="108.54" cy="-306" rx="108.581" ry="18"/>
<text text-anchor="middle" x="108.54" y="-302.3" font-family="Times New Roman,serif" font-size="14.00">[root] provider.aws (close)</text>
</g>
<!-- [root] provider.aws (close)&#45;&gt;[root] aws_instance.ec2 -->
<g id="edge4" class="edge"><title>[root] provider.aws (close)&#45;&gt;[root] aws_instance.ec2</title>
<path fill="none" stroke="black" d="M108.54,-287.697C108.54,-279.983 108.54,-270.712 108.54,-262.112"/>
<polygon fill="black" stroke="black" points="112.04,-262.104 108.54,-252.104 105.04,-262.104 112.04,-262.104"/>
</g>
</g>
</svg>
